<svg height="24" viewBox="0 0 16 16" width="24" xmlns="http://www.w3.org/2000/svg" data-name="Layer 2"><path d="m14 .5h-12a1.5017 1.5017 0 0 0 -1.5 1.5v1a1.4977 1.4977 0 0 0 1 1.4079v7.5921a1.5017 1.5017 0 0 0 1.5 1.5h4.2618a4.4891 4.4891 0 1 0 7.2382-5.2935v-3.7986a1.4977 1.4977 0 0 0 1-1.4079v-1a1.5017 1.5017 0 0 0 -1.5-1.5zm-11 12a.501.501 0 0 1 -.5-.5v-7.5h11v2.7618a4.4725 4.4725 0 0 0 -6.7236 5.2382zm8 2a3.5 3.5 0 1 1 3.5-3.5 3.5042 3.5042 0 0 1 -3.5 3.5zm3.5-11.5a.501.501 0 0 1 -.5.5h-12a.501.501 0 0 1 -.5-.5v-1a.501.501 0 0 1 .5-.5h12a.501.501 0 0 1 .5.5z"></path><path d="m11.5 10.793v-1.793a.5.5 0 0 0 -1 0v2a.4993.4993 0 0 0 .1465.3535l1 1a.5.5 0 0 0 .707-.707z"></path></svg>