<svg clip-rule="evenodd" fill-rule="evenodd" height="24" stroke-linejoin="round" stroke-miterlimit="2" viewBox="0 0 32 32" width="24" xmlns="http://www.w3.org/2000/svg">
    <g id="Icon">
        <path d="m23 16c-3.863 0-7 3.137-7 7s3.137 7 7 7 7-3.137 7-7-3.137-7-7-7zm-19 10h9c.552 0 1-.448 1-1s-.448-1-1-1h-9v-19c0-.552.448-1 1-1h6v8c0 .347.179.668.474.851.295.182.663.198.973.043l3.553-1.776s3.553 1.776 3.553 1.776c.31.155.678.139.973-.043.295-.183.474-.504.474-.851v-8h6c.552 0 1 .448 1 1v10c0 .552.448 1 1 1s1-.448 1-1v-10c0-1.656-1.344-3-3-3h-22c-1.656 0-3 1.344-3 3v22c0 1.656 1.344 3 3 3h10c.552 0 1-.448 1-1s-.448-1-1-1h-10c-.552 0-1-.448-1-1zm19-8c2.76 0 5 2.24 5 5s-2.24 5-5 5-5-2.24-5-5 2.24-5 5-5zm-3.207 5.707 2 2c.39.391 1.024.391 1.414 0l3-3c.39-.39.39-1.024 0-1.414s-1.024-.39-1.414 0l-2.293 2.293s-1.293-1.293-1.293-1.293c-.39-.39-1.024-.39-1.414 0s-.39 1.024 0 1.414zm-.793-19.707h-6v6.382l2.553-1.276c.281-.141.613-.141.894 0 0 0 2.553 1.276 2.553 1.276z">

        </path>
    </g>
</svg>