<svg enable-background="new 0 0 100 100" height="30" viewBox="0 0 100 100" width="30" xmlns="http://www.w3.org/2000/svg">
    <path id="Not_Delivered" d="m92 54.066v-19.066c0-.545-.146-1.078-.428-1.544l-16.251-27.091c-1.62-2.692-4.579-4.365-7.719-4.365h-41.204c-3.141 0-6.1 1.673-7.72 4.368l-16.25 27.088c-.282.466-.428.999-.428 1.544v48c0 4.963 4.037 9 9 9h43.066c4.636 3.745 10.524 6 16.934 6 14.889 0 27-12.111 27-27 0-6.41-2.255-12.298-6-16.934zm-42-46.066h17.602c1.049 0 2.036.56 2.575 1.456l13.524 22.544h-33.701zm-26.177 1.459c.539-.899 1.527-1.459 2.575-1.459h17.602v24h-33.701zm-12.823 76.541c-1.655 0-3-1.345-3-3v-45h78v10.565c-4.293-2.88-9.453-4.565-15-4.565-14.889 0-27 12.111-27 27 0 5.547 1.685 10.707 4.565 15zm60 6c-11.578 0-21-9.422-21-21s9.422-21 21-21 21 9.422 21 21-9.422 21-21 21zm-36-42c0 1.658-1.342 3-3 3h-12c-1.658 0-3-1.342-3-3s1.342-3 3-3h12c1.658 0 3 1.342 3 3zm47.121 14.121-6.879 6.879 6.879 6.879c1.172 1.172 1.172 3.07 0 4.242-.586.586-1.353.879-2.121.879s-1.535-.293-2.121-.879l-6.879-6.879-6.879 6.879c-.586.586-1.353.879-2.121.879s-1.535-.293-2.121-.879c-1.172-1.172-1.172-3.07 0-4.242l6.879-6.879-6.879-6.879c-1.172-1.172-1.172-3.07 0-4.242s3.07-1.172 4.242 0l6.879 6.879 6.879-6.879c1.172-1.172 3.07-1.172 4.242 0s1.172 3.07 0 4.242z">

    </path>
</svg>